PathFileType	4	(X/Y/Z)	Walk3.trc
DataRate	CameraRate	NumFrames	NumMarkers	Units	OrigDataRate	OrigDataStartFrame	OrigNumFrames
200.000000	200.000000	5	59	mm	200.000000	377	578
Frame#	Times		CLAV		STRN		RASI		RACR1		RUA1		RElbow		RFA1		RWRU		LACR1		LUA1		LFA1		LCAR		RTH1		RTH3		RTH2		LTH3		LLFC		LTB1		LTB3		LTB4		LToe		LTH2		RFHD		LTH4		LFHD		LTB2		RBack		RTH4		LMT1		RCAR		RWRR		C7		RPSI		LMT5		LTH1		T10		LMMAL		RLFC		RTB1		LPSI		LLMAL		RBHD		LElbow		LBHD		RTB2		RTB4		RToe		RElbowM		LWRU		RTB3		LWRR		RMT1		RLMAL		RMMAL		LASI		RMT5		RCAL		LElbowM		LCAL
			X1	Y1	Z1	X2	Y2	Z2	X3	Y3	Z3	X4	Y4	Z4	X5	Y5	Z5	X6	Y6	Z6	X7	Y7	Z7	X8	Y8	Z8	X9	Y9	Z9	X10	Y10	Z10	X11	Y11	Z11	X12	Y12	Z12	X13	Y13	Z13	X14	Y14	Z14	X15	Y15	Z15	X16	Y16	Z16	X17	Y17	Z17	X18	Y18	Z18	X19	Y19	Z19	X20	Y20	Z20	X21	Y21	Z21	X22	Y22	Z22	X23	Y23	Z23	X24	Y24	Z24	X25	Y25	Z25	X26	Y26	Z26	X27	Y27	Z27	X28	Y28	Z28	X29	Y29	Z29	X30	Y30	Z30	X31	Y31	Z31	X32	Y32	Z32	X33	Y33	Z33	X34	Y34	Z34	X35	Y35	Z35	X36	Y36	Z36	X37	Y37	Z37	X38	Y38	Z38	X39	Y39	Z39	X40	Y40	Z40	X41	Y41	Z41	X42	Y42	Z42	X43	Y43	Z43	X44	Y44	Z44	X45	Y45	Z45	X46	Y46	Z46	X47	Y47	Z47	X48	Y48	Z48	X49	Y49	Z49	X50	Y50	Z50	X51	Y51	Z51	X52	Y52	Z52	X53	Y53	Z53	X54	Y54	Z54	X55	Y55	Z55	X56	Y56	Z56	X57	Y57	Z57	X58	Y58	Z58	X59	Y59	Z59

377	1.885	0.36342	1320.7	6.7155	76.864	1096.3	-2.8262	42.448	927.63	135.64	-45.635	1324.6	183.09	-99.147	1117.2	236.73	-140.93	1016.4	254.31	-104.33	868.56	269.39	-151.67	765.67	282.94	-70.367	1344.6	-156.82	-54.945	1142.7	-218.12	65.098	937.1	-243.61	158.76	812.7	-244.29	-11.874	743.29	194.61	50.746	567.69	157.84	76.455	685.65	141.35	-119.61	524.72	-116.63	-150.51	421.4	-102.53	-181.89	320.02	-28.057	-313.92	186.46	-32.482	-247.86	250.63	-34.232	-259.77	27.008	-65.595	-44.353	611.61	-105.54	52.08	1561.5	58.961	-116.68	612.37	-132.58	45.68	1561	-13.787	-264.49	269.6	-102.24	-166.02	1290.6	111.52	19.736	655.35	176.49	-301.32	37.571	-34.396	-113.18	717.88	283.85	-96.216	761.05	234.33	-124.57	1399.5	20.487	-180.26	961.49	92.082	-347.18	26.847	-107.29	-110.9	708.46	-147.52	-160	1115.6	14.789	-393.34	124.47	0.12502	79.639	469.83	145.8	129.03	354.57	70.002	-195.46	953.28	-21.31	-415.25	122.43	-80.423	-120.33	1529.7	94.875	-40.24	1023.8	-241.73	-125.16	1539.4	-32.866	122.69	263.05	138.13	134.94	261.81	68.496	312.07	40.187	104.91	-149.85	996.98	170.15	96.147	820.18	-253.25	142.08	169.97	66.312	136.17	847.42	-200.65	274.62	44.308	73.317	113.91	57.728	112.6	134.41	78.187	35.861	3.7542	913.83	-131	229.43	22.499	148.99	74.942	22.585	62.704	-61.516	999.15	-177.67	-471.38	120.64	-24.643
378	1.89	6.4708	1320.9	7.7977	83.061	1096.5	-1.8176	48.78	927.97	136.32	-39.284	1324.6	184.18	-92.315	1117.1	237.62	-133.97	1016.2	255.12	-97.36	868.41	270.13	-144.66	765.52	283.7	-64.151	1344.8	-155.67	-49.344	1142.9	-216.93	69.975	937.01	-242.97	163.46	812.59	-244.17	-4.5606	744.24	194.93	58.58	569	157.57	83.42	687.08	140.59	-110.99	524.28	-116.32	-141.65	421.36	-102.47	-174.36	320.23	-28.557	-308.57	188.93	-33.729	-241.48	252.05	-35.117	-259.89	26.869	-65.462	-36.5	611.71	-104.44	57.714	1561.9	60.02	-108.64	611.98	-132	51.283	1561.4	-12.753	-257.84	271.7	-103.01	-159.72	1290.6	112.69	27.24	656.49	176.31	-300.68	37.726	-34.553	-106.17	717.75	284.58	-89.25	760.89	235.03	-118.45	1399.6	21.665	-174.24	961.82	92.871	-346.26	28.1	-107.36	-103.5	708.15	-146.6	-154.17	1115.8	15.687	-389.05	128.34	-1.365	86.398	470.37	145.83	133.94	354.39	69.76	-189.61	953.12	-20.618	-411	126.83	-81.822	-114.55	1529.6	96.044	-35.253	1023.9	-240.62	-119.5	1539.2	-31.688	126.81	262.9	137.95	138.49	261.54	68.154	313.15	38.033	104.03	-142.87	996.88	170.95	100.73	819.99	-252.48	144.26	169.61	65.888	141.29	847.37	-200.38	275.26	42.671	72.449	114.63	57.846	112.31	134.97	77.809	35.489	9.9057	913.68	-129.44	229.64	22.036	149.29	74.95	22.967	62.814	-56.148	999.35	-176.32	-466.84	126.94	-26.21
379	1.895	12.55	1321.1	8.8546	89.209	1096.8	-0.81179	55.081	928.36	137.03	-32.931	1324.7	185.24	-85.456	1117	238.49	-126.98	1016.1	255.93	-90.32	868.32	270.85	-137.55	765.43	284.46	-57.955	1345.1	-154.53	-43.777	1143.1	-215.76	74.767	936.93	-242.31	168.01	812.45	-244.03	2.576	745.13	195.29	66.223	570.24	157.38	90.192	688.43	139.91	-102.12	523.88	-116.05	-132.47	421.36	-102.47	-166.49	320.49	-29.101	-302.85	191.5	-34.996	-234.74	253.55	-36.034	-259.98	26.721	-65.349	-28.475	611.89	-103.37	63.349	1562.4	61.073	-100.43	611.63	-131.44	56.89	1561.9	-11.724	-250.84	273.9	-103.79	-153.44	1290.7	113.86	34.568	657.56	176.21	-299.91	37.979	-34.74	-99.048	717.67	285.3	-82.185	760.81	235.71	-112.35	1399.7	22.824	-168.26	962.14	93.654	-345.17	29.552	-107.43	-95.99	707.87	-145.68	-148.38	1116.1	16.577	-384.37	132.34	-2.8526	92.977	470.84	145.86	138.7	354.19	69.516	-183.79	952.98	-19.924	-406.38	131.37	-83.212	-108.76	1529.6	97.203	-30.317	1024	-239.52	-113.85	1539.1	-30.52	130.78	262.74	137.76	141.9	261.26	67.814	314.13	36.217	103.27	-135.87	996.86	171.75	105.17	819.8	-251.7	146.31	169.27	65.468	146.26	847.3	-200.09	275.82	41.331	71.671	115.28	57.981	112.03	135.45	77.474	35.127	16.079	913.58	-127.85	229.79	21.698	149.57	74.941	23.313	62.917	-50.847	999.6	-174.99	-461.85	133.44	-27.76
380	1.9	18.595	1321.3	9.8838	95.301	1097.1	0.18706	61.347	928.81	137.77	-26.579	1324.9	186.29	-78.575	1117	239.35	-119.97	1016	256.74	-83.207	868.3	271.55	-130.35	765.39	285.21	-51.792	1345.4	-153.4	-38.244	1143.4	-214.61	79.481	936.87	-241.64	172.43	812.27	-243.86	9.5175	745.93	195.7	73.626	571.37	157.26	96.758	689.67	139.35	-93.023	523.52	-115.82	-123	421.4	-102.51	-158.29	320.8	-29.682	-296.76	194.16	-36.266	-227.67	255.12	-36.97	-260.03	26.568	-65.26	-20.295	612.17	-102.34	68.987	1562.9	62.114	-92.06	611.32	-130.91	62.5	1562.3	-10.706	-243.5	276.18	-104.57	-147.17	1290.8	115.03	41.691	658.53	176.2	-298.98	38.344	-34.958	-91.823	717.66	286.01	-75.024	760.79	236.39	-106.29	1399.9	23.964	-162.32	962.46	94.436	-343.89	31.217	-107.51	-88.398	707.64	-144.79	-142.63	1116.3	17.46	-379.3	136.45	-4.3182	99.351	471.23	145.89	143.31	353.97	69.279	-178	952.86	-19.222	-401.38	136.04	-84.578	-102.98	1529.5	98.348	-25.429	1024.2	-238.43	-108.19	1539	-29.364	134.58	262.56	137.58	145.19	260.99	67.485	315.01	34.709	102.64	-128.85	996.9	172.55	109.5	819.61	-250.92	148.25	168.94	65.061	151.11	847.2	-199.79	276.29	40.26	70.984	115.87	58.124	111.76	135.87	77.177	34.781	22.27	913.53	-126.25	229.89	21.463	149.84	74.923	23.621	63.008	-45.612	999.91	-173.66	-456.42	140.1	-29.281
381	1.905	24.601	1321.6	10.883	101.33	1097.4	1.1745	67.571	929.3	138.53	-20.233	1325.1	187.31	-71.68	1117	240.2	-112.95	1016	257.55	-76.023	868.33	272.24	-123.06	765.41	285.96	-45.673	1345.8	-152.27	-32.747	1143.7	-213.48	84.119	936.82	-240.97	176.72	812.05	-243.65	16.249	746.65	196.17	80.74	572.37	157.22	103.11	690.76	138.94	-83.731	523.22	-115.64	-113.28	421.48	-102.59	-149.79	321.17	-30.292	-290.33	196.89	-37.521	-220.27	256.76	-37.911	-260	26.417	-65.199	-11.982	612.53	-101.35	74.627	1563.4	63.139	-83.554	611.06	-130.42	68.112	1562.8	-9.7015	-235.85	278.53	-105.35	-140.93	1291	116.2	48.576	659.39	176.29	-297.87	38.84	-35.209	-84.493	717.71	286.7	-67.77	760.85	237.05	-100.27	1400.1	25.086	-156.41	962.77	95.219	-342.39	33.106	-107.6	-80.733	707.46	-143.92	-136.91	1116.6	18.339	-373.86	140.65	-5.7408	105.5	471.55	145.94	147.74	353.71	69.056	-172.24	952.77	-18.506	-396.03	140.79	-85.902	-97.195	1529.5	99.477	-20.587	1024.4	-237.36	-102.54	1538.9	-28.221	138.2	262.36	137.4	148.34	260.7	67.174	315.81	33.477	102.14	-121.83	997	173.35	113.71	819.42	-250.14	150.08	168.63	64.673	155.83	847.07	-199.46	276.7	39.424	70.385	116.38	58.267	111.5	136.22	76.913	34.452	28.477	913.54	-124.65	229.95	21.312	150.07	74.903	23.892	63.083	-40.44	1000.3	-172.36	-450.57	146.86	-30.759
